<?xml version="1.0" encoding="UTF-8" standalone="no"?>
<!-- Generator: Adobe Illustrator 16.0.0, SVG Export Plug-In . SVG Version: 6.00 Build 0)  -->

<svg
   xmlns:dc="http://purl.org/dc/elements/1.1/"
   xmlns:cc="http://creativecommons.org/ns#"
   xmlns:rdf="http://www.w3.org/1999/02/22-rdf-syntax-ns#"
   xmlns:svg="http://www.w3.org/2000/svg"
   xmlns="http://www.w3.org/2000/svg"
   xmlns:sodipodi="http://sodipodi.sourceforge.net/DTD/sodipodi-0.dtd"
   xmlns:inkscape="http://www.inkscape.org/namespaces/inkscape"
   version="1.1"
   id="HEW"
   x="0px"
   y="0px"
   width="747.39471"
   height="49.763126"
   viewBox="0 0 747.39475 49.763127"
   enable-background="new 0 0 324.301 74.432"
   xml:space="preserve"
   inkscape:version="0.91 r13725"
   sodipodi:docname="hetechtewerk_cmyk_sm.50643ea.svg"><metadata
     id="metadata91"><rdf:RDF><cc:Work
         rdf:about=""><dc:format>image/svg+xml</dc:format><dc:type
           rdf:resource="http://purl.org/dc/dcmitype/StillImage" /><dc:title></dc:title></cc:Work></rdf:RDF></metadata><defs
     id="defs89" /><sodipodi:namedview
     pagecolor="#ffffff"
     bordercolor="#666666"
     borderopacity="1"
     objecttolerance="10"
     gridtolerance="10"
     guidetolerance="10"
     inkscape:pageopacity="0"
     inkscape:pageshadow="2"
     inkscape:window-width="1920"
     inkscape:window-height="1056"
     id="namedview87"
     showgrid="false"
     inkscape:zoom="0.9065652"
     inkscape:cx="262.93896"
     inkscape:cy="77.28874"
     inkscape:window-x="0"
     inkscape:window-y="24"
     inkscape:window-maximized="1"
     inkscape:current-layer="HEW"
     fit-margin-top="0"
     fit-margin-left="0"
     fit-margin-right="0"
     fit-margin-bottom="0" /><g
     id="g4294"
     transform="translate(110.30646,-5.0736904)"><g
       transform="translate(-110.30646,17.289372)"
       id="g4180"><path
         style="fill:#552988"
         inkscape:connector-curvature="0"
         id="path5"
         d="m 14.717616,24.850502 0,-11.020959 -9.5771653,0 0,11.020959 -5.1404507,0 0,-24.55448268 5.1404507,0 0,9.24572838 9.5771653,0 0,-9.24572838 5.176773,0 0,24.55448268 -5.176773,0 z" /><path
         style="fill:#552988"
         inkscape:connector-curvature="0"
         id="path7"
         d="m 26.885438,17.010429 c 0.147104,2.735944 1.700771,4.511175 4.06714,4.511175 1.552759,0 2.921185,-0.775472 3.254438,-2.034024 l 4.95521,0 c -1.109633,3.735703 -4.10437,5.844187 -7.987177,5.844187 -6.064842,0 -9.097717,-3.327082 -9.097717,-9.909511 0,-5.6217151 3.218117,-9.2448201 8.802602,-9.2448201 5.58267,0 8.541993,3.622197 8.541993,10.8339021 l -12.536489,0 z m 7.58128,-3.031058 c -0.07446,-2.70053 -1.847875,-3.9944966 -3.734795,-3.9944966 -1.922334,0 -3.513232,1.4801156 -3.698473,3.9944966 l 7.433268,0 z" /><path
         style="fill:#552988"
         inkscape:connector-curvature="0"
         id="path9"
         d="m 52.071922,12.869738 4.473944,0 0,5.17768 c 0,3.844669 -2.218357,7.283441 -7.358808,7.283441 -5.324784,0 -7.433268,-3.40245 -7.433268,-7.321578 l 0,-16.271284 4.732738,0 0,4.9179794 10.05843,0 0,3.4024496 -10.05843,0 0,7.46959 c 0,2.292817 0.81361,3.624921 2.774082,3.624921 1.922334,0 2.810403,-1.294874 2.810403,-3.550461 l 0,-4.732738 z" /><path
         style="fill:#552988"
         inkscape:connector-curvature="0"
         id="path11"
         d="m 69.011527,24.850502 0,-24.55448268 18.045607,0 0,4.29051928 -13.053167,0 0,5.2494162 12.017994,0 0,4.3277492 -12.017994,0 0,6.324543 13.644305,0 0,4.363163 -18.636745,0 z" /><path
         style="fill:#552988"
         inkscape:connector-curvature="0"
         id="path13"
         d="m 105.84461,18.267166 c -0.51667,4.217875 -3.95726,7.063693 -8.356747,7.063693 -4.955209,0 -8.356751,-3.29076 -8.356751,-9.798729 0,-6.5097846 3.401542,-9.3556021 8.504762,-9.3556021 4.732736,0 7.949946,2.699622 8.245966,6.9874171 l -4.84442,0 C 100.77953,11.277932 99.411105,10.1683 97.598645,10.1683 c -2.034024,0 -3.698474,1.294874 -3.698474,5.25214 0,3.95545 1.66445,5.879601 3.55137,5.879601 1.885104,0 3.365219,-1.074219 3.549549,-3.033783 l 4.84352,0 z" /><path
         style="fill:#552988"
         inkscape:connector-curvature="0"
         id="path15"
         d="m 119.56883,24.850502 0,-11.279752 c 0,-2.735036 -0.92712,-3.5867837 -3.10643,-3.5867837 -2.40541,0 -3.73479,1.9977017 -3.73479,4.4385307 l 0,10.428005 -4.8072,0 0,-24.8505058146977 4.8072,0 0,9.0232572146977 c 0.7001,-1.6254031 2.92118,-2.8458175 5.36201,-2.8458175 3.73298,0 6.32182,2.1811275 6.32182,5.8051401 l 0,12.868834 -4.84261,0 z" /><path
         style="fill:#552988"
         inkscape:connector-curvature="0"
         id="path17"
         d="m 137.50547,12.869738 4.47303,0 0,5.17768 c 0,3.844669 -2.21744,7.283441 -7.3588,7.283441 -5.3257,0 -7.43236,-3.40245 -7.43236,-7.321578 l 0,-16.271284 4.73273,0 0,4.9179794 10.05753,0 0,3.4024496 -10.05753,0 0,7.46959 c 0,2.292817 0.81361,3.624921 2.77318,3.624921 1.92415,0 2.81222,-1.294874 2.81222,-3.550461 l 0,-4.732738 z" /><path
         style="fill:#552988"
         inkscape:connector-curvature="0"
         id="path19"
         d="m 148.97046,17.010429 c 0.14801,2.735944 1.70168,4.511175 4.06714,4.511175 1.55367,0 2.9221,-0.775472 3.25535,-2.034024 l 4.95612,0 c -1.11054,3.735703 -4.1071,5.844187 -7.9899,5.844187 -6.06485,0 -9.09772,-3.327082 -9.09772,-9.909511 0,-5.6217151 3.21721,-9.2448201 8.8026,-9.2448201 5.58267,0 8.54199,3.622197 8.54199,10.8339021 l -12.53558,0 z m 7.58037,-3.031058 c -0.0735,-2.70053 -1.84787,-3.9944966 -3.73661,-3.9944966 -1.91961,0 -3.51141,1.4801156 -3.69575,3.9944966 l 7.43236,0 z" /></g><g
       transform="translate(58.462428,-11.338153)"
       id="g4173"><path
         style="fill:#552988"
         inkscape:connector-curvature="0"
         id="path21"
         d="m 19.539343,53.477573 -3.809255,-15.97526 -3.881898,15.97526 -4.8081062,0 -6.9520033,-24.552667 5.4727957,0 4.0308181,15.899893 3.4015417,-15.899893 5.399244,0 3.735703,15.899893 3.991772,-15.899893 5.251232,0 -6.876635,24.552667 -4.955209,0 z" /><path
         style="fill:#552988"
         inkscape:connector-curvature="0"
         id="path23"
         d="m 34.853545,45.638409 c 0.146196,2.736852 1.699863,4.512082 4.066232,4.512082 1.55276,0 2.920278,-0.776379 3.254439,-2.03584 l 4.954301,0 c -1.109633,3.736611 -4.10437,5.844187 -7.988084,5.844187 -6.063934,0 -9.095901,-3.327082 -9.095901,-9.908602 0,-5.621716 3.215392,-9.245729 8.801694,-9.245729 5.582669,0 8.540176,3.623105 8.540176,10.83481 l -12.532857,0 z m 7.579464,-3.031059 c -0.07355,-2.699622 -1.849691,-3.993588 -3.734795,-3.993588 -1.923242,0 -3.512324,1.477391 -3.698473,3.993588 l 7.433268,0 z" /><path
         style="fill:#552988"
         inkscape:connector-curvature="0"
         id="path25"
         d="m 49.720081,53.477573 0,-18.193618 4.511175,0 0,2.181128 c 1.590897,-2.440829 3.43968,-2.662392 5.400152,-2.662392 l 0.628368,0 0,4.917979 c -0.444035,-0.07446 -0.888069,-0.111689 -1.331196,-0.111689 -2.958415,0 -4.400393,1.479207 -4.400393,4.402209 l 0,9.465475 -4.808106,0 z" /><path
         style="fill:#552988"
         inkscape:connector-curvature="0"
         id="path27"
         d="m 73.388311,53.477573 -3.99268,-8.170601 -2.330047,2.401783 0,5.769726 -4.84352,0 0,-24.850506 4.84352,0 0,13.570754 5.992198,-6.914774 5.878693,0 -6.101164,6.693211 5.953152,11.499499 -5.400152,0 z" /><path
         style="fill:#552988"
         inkscape:connector-curvature="0"
         id="path29"
         d="m 91.067067,41.494993 4.474852,0 0,5.178589 c 0,3.846484 -2.219265,7.28344 -7.358808,7.28344 -5.323876,0 -7.433268,-3.401542 -7.433268,-7.321578 l 0,-16.269468 4.733646,0 0,4.917979 10.05843,0 0,3.40245 -10.059338,0 0,7.46959 c 0,2.291001 0.81361,3.624921 2.773174,3.624921 1.92415,0 2.810404,-1.294874 2.810404,-3.552277 l 0,-4.733646 z" /></g><g
       transform="matrix(1.359591,0,0,1.359591,23.30239,-46.358403)"
       id="g31"><g
         id="g33"><path
           d="m 144.411,40.264 -22.564,-1.849 c 0.002,0.106 0.009,0.205 0.009,0.315 0,3.756 -0.444,8.436 -1.333,13.865 l -2.356,0 c -0.887,-5.43 -1.333,-10.145 -1.333,-13.969 0,-0.212 0,-0.419 0.002,-0.622 l -2.047,-0.167 c -1.253,-0.104 -2.354,0.83 -2.456,2.084 l -2.428,29.619 c -0.101,1.254 0.83,2.354 2.085,2.455 l 29.62,2.428 c 1.254,0.102 2.354,-0.83 2.459,-2.084 l 2.424,-29.619 c 0.103,-1.254 -0.83,-2.354 -2.082,-2.456 z m -22.795,18.615 -4.609,0 0,-4.473 4.609,0 0,4.473 z"
           id="path35"
           inkscape:connector-curvature="0"
           style="fill:#552988" /></g></g><g
       transform="matrix(1.5713638,0,0,1.5713638,-132.65523,-4.3426587)"
       id="g4280"><path
         d="m 236.99944,29.402706 0,-15.400205 2.97918,0 0,15.399148 -2.97918,0 z"
         id="path39"
         inkscape:connector-curvature="0"
         style="fill:#000000" /><path
         d="m 244.44845,24.542766 c 0.092,1.69786 1.05297,2.798404 2.51931,2.798404 0.9631,0 1.81203,-0.482083 2.01819,-1.261238 l 3.0701,0 c -0.69035,2.314207 -2.54256,3.619847 -4.95086,3.619847 -3.75939,0 -5.63592,-2.062594 -5.63592,-6.142321 0,-3.481354 1.99388,-5.7279 5.45197,-5.7279 3.46127,0 5.29339,2.246546 5.29339,6.713208 l -7.76618,0 z m 4.69819,-1.877584 c -0.0465,-1.672487 -1.14494,-2.473843 -2.31526,-2.473843 -1.19146,0 -2.17889,0.915533 -2.29095,2.473843 l 4.60621,0 z"
         id="path41"
         inkscape:connector-curvature="0"
         style="fill:#000000" /><path
         d="m 253.78246,16.774475 0,-2.771974 2.97601,0 0,2.771974 -2.97601,0 z m 0,12.628231 0,-11.273961 2.97601,0 0,11.273961 -2.97601,0 z"
         id="path43"
         inkscape:connector-curvature="0"
         style="fill:#000000" /><path
         d="m 266.40963,29.402706 -0.0222,-1.375415 c -0.71255,1.144946 -1.76446,1.672488 -3.14094,1.672488 -2.84174,0 -4.88002,-2.246546 -4.88002,-6.05246 0,-3.410521 1.719,-5.817761 4.62947,-5.817761 1.39761,0 2.49499,0.570887 3.34603,1.763407 l 0,-5.590464 2.93267,0 0,15.399148 -2.86501,0 z m 0.0465,-5.363166 c 0,-2.4527 -0.84682,-3.668477 -2.4971,-3.668477 -1.74121,0 -2.56794,1.169261 -2.56794,3.485582 0,2.015019 1.05508,3.41475 2.54468,3.41475 1.42087,0.0011 2.52036,-1.329956 2.52036,-3.231855 z"
         id="path45"
         inkscape:connector-curvature="0"
         style="fill:#000000" /><path
         d="m 273.77407,24.542766 c 0.0909,1.69786 1.05191,2.798404 2.51825,2.798404 0.96416,0 1.81309,-0.482083 2.01925,-1.261238 l 3.06904,0 c -0.68718,2.314207 -2.54256,3.619847 -4.95086,3.619847 -3.75728,0 -5.63698,-2.062594 -5.63698,-6.142321 0,-3.481354 1.99599,-5.7279 5.45409,-5.7279 3.45915,0 5.29339,2.246546 5.29339,6.713208 l -7.76618,0 z m 4.69819,-1.877584 c -0.0465,-1.672487 -1.14494,-2.473843 -2.31421,-2.473843 -1.19252,0 -2.17782,0.915533 -2.292,2.473843 l 4.60621,0 z"
         id="path47"
         inkscape:connector-curvature="0"
         style="fill:#000000" /><path
         d="m 283.0383,29.402706 0,-11.273961 2.79417,0 0,1.350042 c 0.98531,-1.511793 2.13449,-1.649229 3.34815,-1.649229 l 0.38693,0 0,3.046845 c -0.27487,-0.0444 -0.54762,-0.0666 -0.82355,-0.0666 -1.83318,0 -2.72652,0.916591 -2.72652,2.724399 l 0,5.868507 -2.97918,0 z"
         id="path49"
         inkscape:connector-curvature="0"
         style="fill:#000000" /><path
         d="m 297.34113,21.541381 c -0.13849,-1.032883 -0.73369,-1.490649 -2.01713,-1.490649 -1.21367,0 -1.85538,0.253727 -1.85538,0.964164 0,0.618461 0.64066,0.939849 1.83106,1.26018 3.94229,1.077285 5.22468,1.282382 5.22468,3.919034 0,2.015019 -1.71795,3.504611 -4.99527,3.504611 -3.23079,0 -5.31664,-1.533994 -5.3621,-3.916919 l 3.06904,0 c 0,1.051913 0.94091,1.670373 2.27086,1.670373 1.12169,0 2.05943,-0.343589 2.05943,-1.074113 0,-0.825672 -0.59521,-1.102657 -1.80887,-1.377529 -4.37786,-0.96205 -5.17921,-2.086909 -5.17921,-3.986694 0,-1.695746 1.30352,-3.185338 4.83456,-3.185338 3.23186,0 4.65273,1.396559 4.78805,3.711823 l -2.85972,0 z"
         id="path51"
         inkscape:connector-curvature="0"
         style="fill:#000000" /><path
         d="m 311.99284,25.322978 c -0.3235,2.61128 -2.45376,4.376801 -5.17816,4.376801 -3.07116,0 -5.18027,-2.039336 -5.18027,-6.072546 0,-4.033211 2.10911,-5.796617 5.26802,-5.796617 2.93478,0 4.92972,1.67143 5.11155,4.330283 l -3.00138,0 c -0.15858,-1.167147 -1.00645,-1.855383 -2.13237,-1.855383 -1.26018,0 -2.29095,0.802414 -2.29095,3.252999 0,2.451642 1.03077,3.645219 2.20003,3.645219 1.16821,0 2.0848,-0.664978 2.20109,-1.879698 l 3.00244,0 z"
         id="path53"
         inkscape:connector-curvature="0"
         style="fill:#000000" /><path
         d="m 320.54452,29.402706 0,-6.991251 c 0,-1.693631 -0.57301,-2.220116 -1.92305,-2.220116 -1.48959,0 -2.31526,1.234807 -2.31526,2.750829 l 0,6.460538 -2.98024,0 0,-15.400205 2.98024,0 0,5.590464 c 0.43451,-1.008567 1.80992,-1.763407 3.32383,-1.763407 2.31315,0 3.91798,1.353214 3.91798,3.595531 l 0,7.97656 -3.0035,0 z"
         id="path55"
         inkscape:connector-curvature="0"
         style="fill:#000000" /><path
         d="m 332.37773,29.402706 c -0.0951,-0.274872 -0.16175,-0.664978 -0.18501,-1.00751 -0.71149,0.777041 -1.90295,1.304583 -3.41263,1.304583 -2.56899,0 -3.76363,-1.261238 -3.76363,-3.092305 0,-3.255113 2.17995,-3.621961 5.18133,-4.035325 1.49065,-0.204039 1.90084,-0.502169 1.90084,-1.282381 0,-0.733696 -0.73369,-1.167147 -1.90084,-1.167147 -1.35215,0 -1.9019,0.662863 -2.04039,1.673545 l -2.77197,0 c 0.0455,-2.340637 1.32784,-3.96555 4.9498,-3.96555 3.57438,0 4.81342,1.602712 4.81342,4.445518 l 0,7.126572 -2.77092,0 z m -0.20826,-5.52386 c -0.29813,0.299187 -0.82356,0.458824 -1.92305,0.66392 -1.69574,0.321389 -2.24654,0.803471 -2.24654,1.765521 0,0.84893 0.50428,1.261237 1.44413,1.261237 1.53294,0 2.68,-1.123801 2.70114,-2.453756 l 0.0243,-1.236922 z"
         id="path57"
         inkscape:connector-curvature="0"
         style="fill:#000000" /><path
         d="m 336.91946,34.743671 0,-16.614926 2.86606,0 0.0222,1.373301 c 0.71044,-1.144946 1.76447,-1.67143 3.13988,-1.67143 2.84175,0 4.88214,2.246546 4.88214,6.049287 0,3.413693 -1.72006,5.820933 -4.62841,5.820933 -1.40079,0 -2.50027,-0.571944 -3.3492,-1.765521 l 0,6.809413 -2.93267,0 z m 7.88564,-11.070979 c 0,-2.016077 -1.05403,-3.412635 -2.54679,-3.412635 -1.41982,0 -2.52142,1.326783 -2.52142,3.228683 0,2.452699 0.84999,3.668477 2.49922,3.668477 1.7412,0 2.56899,-1.170318 2.56899,-3.484525 z"
         id="path59"
         inkscape:connector-curvature="0"
         style="fill:#000000" /><path
         d="m 356.15306,21.541381 c -0.13743,-1.032883 -0.73475,-1.490649 -2.01607,-1.490649 -1.21472,0 -1.85856,0.253727 -1.85856,0.964164 0,0.618461 0.64278,0.939849 1.83318,1.26018 3.94229,1.077285 5.22362,1.282382 5.22362,3.919034 0,2.015019 -1.71478,3.504611 -4.99315,3.504611 -3.2308,0 -5.31876,-1.533994 -5.36105,-3.916919 l 3.06693,0 c 0,1.051913 0.94197,1.670373 2.26875,1.670373 1.1238,0 2.06154,-0.343589 2.06154,-1.074113 0,-0.825672 -0.59521,-1.102657 -1.80887,-1.377529 -4.37891,-0.96205 -5.18027,-2.086909 -5.18027,-3.986694 0,-1.695746 1.3067,-3.185338 4.83668,-3.185338 3.23186,0 4.65167,1.396559 4.78911,3.711823 l -2.86184,0 z"
         id="path61"
         inkscape:connector-curvature="0"
         style="fill:#000000" /></g><g
       transform="matrix(1.5713638,0,0,1.5713638,72.584739,-34.225925)"
       id="g4266"><path
         d="m 236.86623,42.793177 c 0,-3.532099 2.1958,-5.862163 5.72684,-5.862163 3.48241,0 5.65601,2.30892 5.65601,5.862163 0,3.528927 -2.1958,5.860049 -5.65601,5.860049 -3.60082,0 -5.72684,-2.398782 -5.72684,-5.860049 z m 8.41847,0 c 0,-2.265575 -0.90391,-3.372462 -2.69163,-3.372462 -1.79089,0 -2.6948,1.107944 -2.6948,3.372462 0,2.261347 0.90285,3.390434 2.6948,3.390434 1.78667,0 2.69163,-1.130144 2.69163,-3.390434 z"
         id="path63"
         inkscape:connector-curvature="0"
         style="fill:#000000" /><path
         d="m 256.89696,48.356153 0,-6.741752 c 0,-1.719004 -0.49582,-2.194743 -1.89873,-2.194743 -1.53928,0 -2.28566,0.860559 -2.28566,2.557362 l 0,6.379133 -2.94112,0 0,-11.130181 2.80263,0 0,1.628085 c 0.68083,-1.246437 1.81309,-1.923043 3.5987,-1.923043 2.12814,0 3.68751,1.289781 3.68751,3.711822 l 0,7.714375 -2.96333,0 z"
         id="path65"
         inkscape:connector-curvature="0"
         style="fill:#000000" /><path
         d="m 267.92565,41.027656 2.73709,0 0,3.166309 c 0,2.353323 -1.35956,4.459261 -4.50261,4.459261 -3.25934,0 -4.54912,-2.080566 -4.54912,-4.483577 l 0,-9.95352 2.89672,0 0,3.009843 6.15395,0 0,2.080566 -6.15395,0 0,4.56921 c 0,1.403959 0.49794,2.218002 1.69575,2.218002 1.17772,0 1.72217,-0.792899 1.72217,-2.171485 l 0,-2.894609 z"
         id="path67"
         inkscape:connector-curvature="0"
         style="fill:#000000" /><path
         d="m 281.47999,48.356153 -1.76446,-6.468995 -1.76447,6.468995 -3.00878,0 -3.16737,-11.130181 3.09971,0 1.80886,7.149831 1.5414,-7.149831 2.98447,0 1.74437,7.149831 1.69575,-7.149831 3.0331,0 -3.19274,11.130181 -3.00984,0 z"
         id="path69"
         inkscape:connector-curvature="0"
         style="fill:#000000" /><path
         d="m 289.00407,35.888616 0,-2.736028 2.94007,0 0,2.736028 -2.94007,0 z m 0,12.467537 0,-11.130181 2.94007,0 0,11.130181 -2.94007,0 z"
         id="path71"
         inkscape:connector-curvature="0"
         style="fill:#000000" /><path
         d="m 300.5899,48.356153 -2.44318,-5.000547 -1.42616,1.470563 0,3.531042 -2.96333,0 0,-15.204623 2.96333,0 0,8.303233 3.6653,-4.230906 3.59765,0 -3.73297,4.096642 3.64311,7.033539 -3.30375,0 z"
         id="path73"
         inkscape:connector-curvature="0"
         style="fill:#000000" /><path
         d="m 311.97804,48.356153 -2.4453,-5.000547 -1.42616,1.470563 0,3.531042 -2.96438,0 0,-15.204623 2.96438,0 0,8.303233 3.66531,-4.230906 3.5987,0 -3.73403,4.096642 3.64417,7.033539 -3.30269,0 z"
         id="path75"
         inkscape:connector-curvature="0"
         style="fill:#000000" /><path
         d="m 318.07173,43.559646 c 0.0899,1.673544 1.03817,2.761401 2.48759,2.761401 0.94725,0 1.78772,-0.475739 1.99282,-1.245379 l 3.03098,0 c -0.67766,2.285662 -2.51084,3.576501 -4.88742,3.576501 -3.71077,0 -5.56721,-2.037221 -5.56721,-6.065146 0,-3.438008 1.97167,-5.657067 5.38642,-5.657067 3.41581,0 5.22679,2.219059 5.22679,6.62969 l -7.66997,0 z m 4.63899,-1.855383 c -0.0476,-1.650286 -1.13121,-2.444242 -2.28884,-2.444242 -1.1756,0 -2.14717,0.903904 -2.26135,2.444242 l 4.55019,0 z"
         id="path77"
         inkscape:connector-curvature="0"
         style="fill:#000000" /><path
         d="m 327.21544,48.356153 0,-15.203565 2.94218,0 0,15.203565 -2.94218,0 z"
         id="path79"
         inkscape:connector-curvature="0"
         style="fill:#000000" /><path
         d="m 331.94745,35.888616 0,-2.736028 2.94219,0 0,2.736028 -2.94219,0 z m 0,12.467537 0,-11.130181 2.94219,0 0,11.130181 -2.94219,0 z"
         id="path81"
         inkscape:connector-curvature="0"
         style="fill:#000000" /><path
         d="m 343.83248,48.356153 0,-6.741752 c 0,-1.719004 -0.50112,-2.194743 -1.90402,-2.194743 -1.53928,0 -2.2846,0.860559 -2.2846,2.557362 l 0,6.379133 -2.94007,0 0,-11.130181 2.8058,0 0,1.628085 c 0.67661,-1.246437 1.80887,-1.923043 3.59342,-1.923043 2.1292,0 3.69173,1.289781 3.69173,3.711822 l 0,7.714375 -2.96226,0 z"
         id="path83"
         inkscape:connector-curvature="0"
         style="fill:#000000" /><path
         d="m 356.30424,46.862333 c -0.40913,0.997995 -1.608,1.58474 -3.0553,1.58474 -3.66636,0 -4.93606,-2.80369 -4.93606,-5.723671 0,-3.462324 2.17572,-5.792388 4.86734,-5.792388 1.40185,0 2.41993,0.544457 3.12402,1.675659 l 0,-1.380701 2.94007,0 0,11.245416 c 0,3.350261 -2.44319,5.15807 -5.54289,5.15807 -3.10182,0 -5.38854,-1.786665 -5.38854,-4.658015 l 2.74026,0 c 0,1.332069 0.97368,2.124968 2.44424,2.124968 1.56254,0 2.80686,-0.92822 2.80686,-2.400897 l 0,-1.833181 z m 0.0867,-3.801685 c 0,-2.417812 -0.83413,-3.572272 -2.50979,-3.572272 -1.6524,0 -2.5119,1.111115 -2.5119,3.394663 0,1.991761 1.06143,3.258284 2.5119,3.258284 1.42511,0 2.50979,-1.200977 2.50979,-3.080675 z"
         id="path85"
         inkscape:connector-curvature="0"
         style="fill:#000000" /></g></g></svg>