<?xml version="1.0" encoding="UTF-8" standalone="no"?>
<!-- Generator: Adobe Illustrator 16.0.0, SVG Export Plug-In . SVG Version: 6.00 Build 0)  -->

<svg
   xmlns:dc="http://purl.org/dc/elements/1.1/"
   xmlns:cc="http://creativecommons.org/ns#"
   xmlns:rdf="http://www.w3.org/1999/02/22-rdf-syntax-ns#"
   xmlns:svg="http://www.w3.org/2000/svg"
   xmlns="http://www.w3.org/2000/svg"
   xmlns:sodipodi="http://sodipodi.sourceforge.net/DTD/sodipodi-0.dtd"
   xmlns:inkscape="http://www.inkscape.org/namespaces/inkscape"
   version="1.1"
   id="Layer_1"
   x="0px"
   y="0px"
   width="36.604px"
   height="36.602px"
   viewBox="0 0 36.604 36.602"
   enable-background="new 0 0 36.604 36.602"
   xml:space="preserve"
   inkscape:version="0.91 r13725"
   sodipodi:docname="icon_qoute.svg"><metadata
     id="metadata11"><rdf:RDF><cc:Work
         rdf:about=""><dc:format>image/svg+xml</dc:format><dc:type
           rdf:resource="http://purl.org/dc/dcmitype/StillImage" /><dc:title></dc:title></cc:Work></rdf:RDF></metadata><defs
     id="defs9" /><sodipodi:namedview
     pagecolor="#ffffff"
     bordercolor="#666666"
     borderopacity="1"
     objecttolerance="10"
     gridtolerance="10"
     guidetolerance="10"
     inkscape:pageopacity="0"
     inkscape:pageshadow="2"
     inkscape:window-width="1920"
     inkscape:window-height="1056"
     id="namedview7"
     showgrid="false"
     inkscape:zoom="38.438422"
     inkscape:cx="18.302"
     inkscape:cy="21.164154"
     inkscape:window-x="0"
     inkscape:window-y="24"
     inkscape:window-maximized="1"
     inkscape:current-layer="Layer_1" /><path
     style="fill:#542987"
     d="M 4.8925781 0.0078125 C 3.6395781 -0.0961875 2.5375469 0.83779681 2.4355469 2.0917969 L 0.0078125 31.710938 C -0.0941875 32.964936 0.83874997 34.065016 2.09375 34.166016 L 31.712891 36.59375 C 32.966891 36.69575 34.066875 35.763766 34.171875 34.509766 L 36.595703 4.890625 C 36.696703 3.636625 35.765672 2.5365937 34.513672 2.4335938 L 11.949219 0.5859375 L 4.8925781 0.0078125 z M 14.695312 9.4453125 L 15.980469 9.4453125 C 16.550884 9.4453125 16.835937 9.7303663 16.835938 10.300781 L 16.835938 11.669922 C 16.835938 12.240337 16.550884 12.525391 15.980469 12.525391 C 14.269222 12.525391 13.09816 12.83934 12.470703 13.466797 C 11.900287 14.037212 11.615234 15.264113 11.615234 17.146484 L 11.615234 18.943359 L 15.380859 18.943359 C 15.951274 18.943359 16.236328 19.228413 16.236328 19.798828 L 16.236328 26.300781 C 16.236328 26.871196 15.951274 27.15625 15.380859 27.15625 L 8.3652344 27.15625 C 7.7948193 27.15625 7.5097656 26.871196 7.5097656 26.300781 L 7.5097656 16.632812 C 7.5097656 14.180025 8.1935028 12.383018 9.5625 11.242188 C 10.931496 10.044315 12.641816 9.4453125 14.695312 9.4453125 z M 26.957031 9.4453125 L 28.240234 9.4453125 C 28.810649 9.4453125 29.095703 9.7303663 29.095703 10.300781 L 29.095703 11.669922 C 29.095703 12.240337 28.810649 12.525391 28.240234 12.525391 C 26.528987 12.525391 25.359879 12.83934 24.732422 13.466797 C 24.162007 14.037212 23.875 15.264113 23.875 17.146484 L 23.875 18.943359 L 27.640625 18.943359 C 28.211041 18.943359 28.496094 19.228413 28.496094 19.798828 L 28.496094 26.300781 C 28.496094 26.871196 28.211041 27.15625 27.640625 27.15625 L 20.625 27.15625 C 20.054585 27.15625 19.769531 26.871196 19.769531 26.300781 L 19.769531 16.632812 C 19.769531 14.180025 20.453269 12.383018 21.822266 11.242188 C 23.191263 10.044315 24.903535 9.4453125 26.957031 9.4453125 z "
     id="path5" /></svg>